<svg>

<symbol id="moon" xmlns="http://www.w3.org/2000/svg"  viewBox="0 0 24 24"><g fill="currentColor" fill-opacity="0"><path d="M15.22 6.03l2.53 -1.94l-3.19 -0.09l-1.06 -3l-1.06 3l-3.19 0.09l2.53 1.94l-0.91 3.06l2.63 -1.81l2.63 1.81l-0.91 -3.06Z" fill-opacity="1"/><path d="M19.61 12.25l1.64 -1.25l-2.06 -0.05l-0.69 -1.95l-0.69 1.95l-2.06 0.05l1.64 1.25l-0.59 1.98l1.7 -1.17l1.7 1.17l-0.59 -1.98Z" fill-opacity="1"/></g><path fill="none" stroke="currentColor" stroke-linecap="round" stroke-linejoin="round" stroke-width="2" d="M7 6c0 6.08 4.92 11 11 11c0.53 0 1.05 -0.04 1.56 -0.11c-1.61 2.47 -4.39 4.11 -7.56 4.11c-4.97 0 -9 -4.03 -9 -9c0 -3.17 1.64 -5.95 4.11 -7.56c-0.07 0.51 -0.11 1.03 -0.11 1.56Z"/></symbol>
<symbol id="setting" xmlns="http://www.w3.org/2000/svg"  viewBox="0 0 24 24"><path fill="currentColor" d="M19.9 12.66a1 1 0 0 1 0-1.32l1.28-1.44a1 1 0 0 0 .12-1.17l-2-3.46a1 1 0 0 0-1.07-.48l-1.88.38a1 1 0 0 1-1.15-.66l-.61-1.83a1 1 0 0 0-.95-.68h-4a1 1 0 0 0-1 .68l-.56 1.83a1 1 0 0 1-1.15.66L5 4.79a1 1 0 0 0-1 .48L2 8.73a1 1 0 0 0 .1 1.17l1.27 1.44a1 1 0 0 1 0 1.32L2.1 14.1a1 1 0 0 0-.1 1.17l2 3.46a1 1 0 0 0 1.07.48l1.88-.38a1 1 0 0 1 1.15.66l.61 1.83a1 1 0 0 0 1 .68h4a1 1 0 0 0 .95-.68l.61-1.83a1 1 0 0 1 1.15-.66l1.88.38a1 1 0 0 0 1.07-.48l2-3.46a1 1 0 0 0-.12-1.17ZM18.41 14l.8.9l-1.28 2.22l-1.18-.24a3 3 0 0 0-3.45 2L12.92 20h-2.56L10 18.86a3 3 0 0 0-3.45-2l-1.18.24l-1.3-2.21l.8-.9a3 3 0 0 0 0-4l-.8-.9l1.28-2.2l1.18.24a3 3 0 0 0 3.45-2L10.36 4h2.56l.38 1.14a3 3 0 0 0 3.45 2l1.18-.24l1.28 2.22l-.8.9a3 3 0 0 0 0 3.98m-6.77-6a4 4 0 1 0 4 4a4 4 0 0 0-4-4m0 6a2 2 0 1 1 2-2a2 2 0 0 1-2 2"/></symbol>
<symbol id="sun" xmlns="http://www.w3.org/2000/svg" viewBox="0 0 24 24"><path fill="currentColor" fill-rule="evenodd" d="M12 1.25a.75.75 0 0 1 .75.75v1a.75.75 0 0 1-1.5 0V2a.75.75 0 0 1 .75-.75M4.399 4.399a.75.75 0 0 1 1.06 0l.393.392a.75.75 0 0 1-1.06 1.061l-.393-.393a.75.75 0 0 1 0-1.06m15.202 0a.75.75 0 0 1 0 1.06l-.393.393a.75.75 0 0 1-1.06-1.06l.393-.393a.75.75 0 0 1 1.06 0M12 6.75a5.25 5.25 0 1 0 0 10.5a5.25 5.25 0 0 0 0-10.5M5.25 12a6.75 6.75 0 1 1 13.5 0a6.75 6.75 0 0 1-13.5 0m-4 0a.75.75 0 0 1 .75-.75h1a.75.75 0 0 1 0 1.5H2a.75.75 0 0 1-.75-.75m19 0a.75.75 0 0 1 .75-.75h1a.75.75 0 0 1 0 1.5h-1a.75.75 0 0 1-.75-.75m-2.102 6.148a.75.75 0 0 1 1.06 0l.393.393a.75.75 0 1 1-1.06 1.06l-.393-.393a.75.75 0 0 1 0-1.06m-12.296 0a.75.75 0 0 1 0 1.06l-.393.393a.75.75 0 1 1-1.06-1.06l.392-.393a.75.75 0 0 1 1.061 0M12 20.25a.75.75 0 0 1 .75.75v1a.75.75 0 0 1-1.5 0v-1a.75.75 0 0 1 .75-.75" clip-rule="evenodd"/></symbol>
<symbol id="close" xmlns="http://www.w3.org/2000/svg" viewBox="0 0 24 24"><path fill="currentColor" d="M16.95 8.464a1 1 0 0 0-1.414-1.414L12 10.586L8.464 7.05A1 1 0 1 0 7.05 8.464L10.586 12L7.05 15.536a1 1 0 1 0 1.414 1.414L12 13.414l3.536 3.536a1 1 0 1 0 1.414-1.414L13.414 12z"/></symbol>
<symbol id="add_icon" xmlns="http://www.w3.org/2000/svg" viewBox="0 0 24 24"><g fill="currentColor" fill-rule="evenodd" clip-rule="evenodd"><path d="M2 12C2 6.477 6.477 2 12 2s10 4.477 10 10s-4.477 10-10 10S2 17.523 2 12m10-8a8 8 0 1 0 0 16a8 8 0 0 0 0-16"/><path d="M13 7a1 1 0 1 0-2 0v4H7a1 1 0 1 0 0 2h4v4a1 1 0 1 0 2 0v-4h4a1 1 0 1 0 0-2h-4z"/></g></symbol>
<symbol id="sort_icon" xmlns="http://www.w3.org/2000/svg" viewBox="0 0 24 24"><path fill="currentColor" d="M13.47 7.53a.75.75 0 0 0 1.06 0l.72-.72V17a.75.75 0 0 0 1.5 0V6.81l.72.72a.75.75 0 1 0 1.06-1.06l-2-2a.75.75 0 0 0-1.06 0l-2 2a.75.75 0 0 0 0 1.06m-4.72 9.66l.72-.72a.75.75 0 1 1 1.06 1.06l-2 2a.75.75 0 0 1-1.06 0l-2-2a.75.75 0 1 1 1.06-1.06l.72.72V7a.75.75 0 0 1 1.5 0z"/></symbol>
<symbol id="dots" xmlns="http://www.w3.org/2000/svg" viewBox="0 0 24 24"><path fill="currentColor" d="M12 16a2 2 0 0 1 2 2a2 2 0 0 1-2 2a2 2 0 0 1-2-2a2 2 0 0 1 2-2m0-6a2 2 0 0 1 2 2a2 2 0 0 1-2 2a2 2 0 0 1-2-2a2 2 0 0 1 2-2m0-6a2 2 0 0 1 2 2a2 2 0 0 1-2 2a2 2 0 0 1-2-2a2 2 0 0 1 2-2m0 1a1 1 0 0 0-1 1a1 1 0 0 0 1 1a1 1 0 0 0 1-1a1 1 0 0 0-1-1m0 6a1 1 0 0 0-1 1a1 1 0 0 0 1 1a1 1 0 0 0 1-1a1 1 0 0 0-1-1m0 6a1 1 0 0 0-1 1a1 1 0 0 0 1 1a1 1 0 0 0 1-1a1 1 0 0 0-1-1"/></symbol>
<symbol id="down_icon" xmlns="http://www.w3.org/2000/svg" viewBox="0 0 24 24"><path fill="none" stroke="currentColor" stroke-linecap="round" stroke-linejoin="round" stroke-width="1.5" d="m6 9l6 6l6-6"/></symbol>
</svg>